<?xml version="1.0" encoding="UTF-8"?><svg id="Layer_1" xmlns="http://www.w3.org/2000/svg" viewBox="0 0 471.28 205.96"><defs><style>.cls-1{fill:#c4122f;}.cls-2{fill:#0d3862;}</style></defs><g><path class="cls-1" d="M69.36,138.89c.13,.28,.26,.56,.4,.84,.23,.21,.45,.42,.68,.62-.37-.48-.73-.97-1.08-1.46Z"/><path class="cls-1" d="M69.57,66.77c-.1,.09-.19,.19-.29,.28-.05,.11-.1,.23-.15,.34,.15-.21,.29-.41,.44-.62Z"/><path class="cls-1" d="M138.92,44.39s-.02-.01-.04-.02c-.01,0-.03,0-.04,0,.03,0,.05,.02,.08,.03Z"/><path class="cls-1" d="M151.01,151.5c-4.99,6.17-7.22,7.23-11.92,9.98,11.65-4.04,23.16-12.73,30.48-22.43-4.58,4.14-10.8,7.98-16.75,9.67-.24,.36-1.52,2.44-1.8,2.78Z"/><path class="cls-1" d="M119.77,159.48c-.36,.14-.71,.27-1.08,.4-5.7,2.03-12.33,2.69-17.95,2.06,4.9,1.56,10.87,2.45,16.22,2.68,7.36,.32,15.48-.94,22.13-3.14-1.52,.18-4.07,.5-5.64,.5-4.8,0-9.41-.89-13.68-2.51Z"/><path class="cls-1" d="M86.09,148.93c-.22-.06-.43-.12-.65-.19-5.74-1.74-10.8-4.65-15-8.39,7.2,9.45,17.66,16.88,29.15,20.93-.99-.59-2.53-1.32-3.48-2-4.06-2.91-7.41-6.44-10.02-10.36Z"/><path class="cls-1" d="M65.71,120.77c-.12-.15-.24-.31-.36-.46-3.85-5.02-6.33-11.74-7.5-17.55,.17,13.01,4.4,26.2,11.52,36.14-.57-1.25-1.09-2.54-1.54-3.87-1.61-4.73-2.28-9.55-2.12-14.26Z"/><path class="cls-1" d="M65.63,85.47c0-.09,0-.18-.01-.28-.21-6.34,1.07-12.39,3.51-17.81-6.63,9.37-10.72,20.69-11.24,33.02-.02,.56-.04,1.8-.05,2.36,.24-1.12,.52-2.91,.86-4.02,1.51-4.97,3.89-9.43,6.93-13.27Z"/><path class="cls-1" d="M86.06,57.5c.03-.05,.07-.11,.1-.16,3.62-5.43,9.1-10.24,14.42-13.24-11.84,3.54-23.55,12.38-31.01,22.66,.99-.94,2.05-1.84,3.16-2.69,4.1-3.15,8.65-5.23,13.33-6.58Z"/><path class="cls-1" d="M119.88,46.49c6.28-2.25,12.76-2.98,18.96-2.13-5.29-1.74-10.9-2.78-16.73-3.03-7.23-.3-14.99,.76-21.53,2.78,.99-.11,2.76-.28,3.78-.32,5.46-.18,10.71,.88,15.52,2.7Z"/><path class="cls-1" d="M152.68,56.96c6.13,1.69,12.22,5.75,16.67,9.73-7.44-9.79-18.44-18.34-30.43-22.3,.95,.53,1.89,1.1,2.81,1.71,4.45,2.97,8.12,6.68,10.95,10.86Z"/><path class="cls-1" d="M173.33,85.65c3.84,4.91,6.66,11.31,7.9,17.46-.1-13.14-4.7-26.4-11.89-36.43,.44,.94,1.21,2.28,1.58,3.26,1.95,5.17,2.61,10.5,2.41,15.7Z"/><path class="cls-1" d="M173.28,120.26s.1,.52,.11,.56c.03,.15,.04,.3,.05,.46,.04,.4,.07,.79,.08,1.2,0,.59-.01,1.18-.06,1.76-.04,.55-.07,1.13-.17,1.68-.23,1.91-.6,3.8-1.09,5.66-.48,1.82-1.07,3.61-1.75,5.36-.28,.71-.58,1.42-.89,2.12,6.58-9.35,11.11-21.23,11.62-33.49,.02-.56,.04-1.89,.05-2.44-.15,.69-.32,2.15-.5,2.84-1.45,5.43-4.18,10.16-7.45,14.31Z"/><path class="cls-1" d="M134.74,149.62c-3.88,4.07-9.47,7.67-15,9.86,11.6-.2,24.14-4.49,33.07-10.76-5.46,1.41-12.22,1.96-18.06,.9Z"/><path class="cls-1" d="M104.54,149.61c-5.59,1.06-12.6,.81-18.44-.68,8.53,5.98,19.91,9.96,31.09,10.43,.59,.02,1.97,.11,2.56,.12-5.5-2.13-11.19-5.69-15.21-9.87Z"/><path class="cls-1" d="M65.71,120.77c3.67,10.68,11.52,21.44,20.38,28.16-3.06-4.89-5.44-11.5-6.19-17.13-5.11-2.46-10.38-6.38-14.19-11.03Z"/><path class="cls-1" d="M65.62,85.53c-1.43,4.59-2.25,10.06-2.46,15.1-.28,6.78,.61,14.03,2.56,20.15,.31-5.99,1.99-12.48,4.79-17.67-2.78-5.07-4.54-11.44-4.88-17.58Z"/><path class="cls-1" d="M79.83,74.42c.74-5.69,2.93-11.78,6.23-16.92-9.03,6.77-16.75,17.05-20.44,28.02,3.74-4.57,8.98-8.59,14.22-11.11Z"/><path class="cls-1" d="M70.5,103.1c.06,.11,.12,.22,.18,.33,0-.23,0-.45,0-.68-.06,.11-.12,.23-.19,.35Z"/><path class="cls-1" d="M119.85,46.49c-.45-.02-.91,0-1.36,.01s-.92,.04-1.38,.06c-.92,.05-1.83,.12-2.75,.21-.91,.09-1.82,.2-2.72,.34s-1.8,.29-2.69,.46-1.78,.37-2.66,.59-1.75,.45-2.62,.71-1.72,.53-2.57,.82c-.85,.29-1.69,.6-2.52,.94s-1.65,.68-2.46,1.05c-.81,.37-1.61,.75-2.4,1.15s-1.56,.82-2.33,1.26-1.51,.89-2.25,1.36-1.46,.95-2.17,1.45c-.15,.11-.76,.51-.91,.62,5.86-1.61,12.42-2.14,18.3-1.06,.03,0,.19-.2,.21-.22,.07-.08,.15-.15,.22-.23,.15-.15,.3-.31,.45-.46,.31-.3,.62-.6,.93-.89,.63-.59,1.29-1.15,1.96-1.7s1.37-1.07,2.08-1.58c.72-.51,1.45-.99,2.2-1.45,.76-.46,1.53-.9,2.31-1.31,.9-.47,1.82-.91,2.74-1.31,.37-.16,.76-.34,1.14-.48,0,0,.32-.16,1.22-.32Z"/><path class="cls-1" d="M134.55,56.36c5.56-1.03,12.3-.89,18.13,.6-8.54-6-19.58-9.89-30.78-10.36-.5-.02-1.51-.1-2.01-.1,3.46,1,10.68,5.7,14.66,9.86Z"/><path class="cls-1" d="M104.36,56.44s-.05,.06-.08,.08c.06-.02,.13-.04,.19-.06-.04,0-.07-.01-.11-.02Z"/><path class="cls-1" d="M173.33,85.65c-3.69-11.09-11.41-21.83-20.66-28.69,3.26,5.03,5.77,11.37,6.55,17.23,5.5,2.62,10.43,6.9,14.11,11.46Z"/><path class="cls-1" d="M159.25,131.8c-.72,5.68-3.19,11.82-6.44,16.92,9.03-6.76,16.78-17.48,20.48-28.46-3.76,4.59-8.75,9.01-14.04,11.54Z"/><path class="cls-1" d="M173.28,120.26c1.4-4.54,2.43-9.96,2.64-14.93,.28-6.64-.72-13.68-2.59-19.69-.32,5.89-2.04,12.25-4.79,17.38,2.69,5,4.39,11.25,4.74,17.23Z"/><path class="cls-1" d="M159.25,131.8s.01-.08,.02-.12c-.04,.06-.08,.11-.12,.17,.03-.02,.07-.03,.1-.05Z"/><path class="cls-1" d="M159.23,74.28s0-.06-.01-.09c-.03-.01-.06-.03-.09-.04,.03,.04,.07,.09,.1,.13Z"/><path class="cls-1" d="M119.44,143.44c-4.38,2.95-9.69,5.12-14.91,6.16,4,1.26,8.64,2.1,13.04,2.28,5.8,.24,11.93-.64,17.17-2.27-.95-.04-2.3-.28-3.18-.51-4.43-1.18-8.53-3.24-12.12-5.66Z"/><path class="cls-1" d="M79.9,131.8c5.91,7.88,15.03,14.63,24.63,17.81-3.63-3.86-6.75-8.66-8.63-13.72-5.29-.18-11.15-1.87-16-4.09Z"/><path class="cls-1" d="M80.98,115.44c-4.17-3.27-7.68-7.34-10.29-12.01,.08,10.29,3.64,20.48,9.22,28.37-.59-5.24-.44-11.2,1.07-16.36Z"/><path class="cls-1" d="M80.97,90.63c-1.48-5.12-1.76-10.87-1.13-16.22-5.26,7.43-8.7,16.77-9.11,26.54-.03,.6-.04,1.2-.04,1.8,2.56-4.64,6.03-8.78,10.28-12.12Z"/><path class="cls-1" d="M80.98,115.44s.05,.04,.07,.05c-.01-.04-.03-.09-.04-.13,0,.03-.02,.05-.02,.08Z"/><path class="cls-1" d="M95.79,70.21c1.87-5.06,4.75-9.73,8.49-13.69-9.71,3.2-18.48,9.79-24.45,17.89,4.81-2.23,10.44-3.95,15.86-4.13,.03-.02,.07-.05,.1-.07Z"/><path class="cls-1" d="M80.97,90.63s0,.03,.01,.04c0-.02,.01-.05,.02-.07-.01,0-.02,.02-.03,.03Z"/><path class="cls-1" d="M134.55,56.36c-3.97-1.23-8.54-2.06-12.89-2.24-6-.25-11.79,.59-17.19,2.35,5.27,.98,10.35,3,14.9,6.04,4.44-3.03,9.85-5.08,15.17-6.14Z"/><path class="cls-1" d="M152.26,71.63c2.4,.64,4.7,1.49,6.87,2.52-5.93-8.11-14.8-14.55-24.59-17.79,3.65,3.92,7.03,8.78,8.88,13.93,2.93,.11,5.89,.55,8.83,1.34Z"/><path class="cls-1" d="M119.38,62.5s-.02,.01-.02,.02c.02,0,.03,0,.05,0,0,0-.02-.01-.03-.02Z"/><path class="cls-1" d="M134.74,149.62c9.66-3.25,18.47-9.66,24.4-17.77-4.83,2.29-10.14,3.63-15.61,3.83-1.82,5.06-5.11,9.96-8.79,13.94Z"/><path class="cls-1" d="M157.96,115.73c1.46,5.16,1.97,10.6,1.31,15.95,5.45-7.52,8.82-16.67,9.24-26.64,.02-.55,.04-1.48,.04-2.02-2.59,4.72-6.23,9.31-10.59,12.7Z"/><path class="cls-1" d="M143.53,135.68c.02-.05,.04-.11,.06-.16-.08,.06-.15,.11-.23,.17,.06,0,.11,0,.17,0Z"/><path class="cls-1" d="M158.01,90.38c4.27,3.32,7.9,7.89,10.54,12.65-.07-10.54-3.51-20.75-9.31-28.75,.69,5.32,.27,10.81-1.23,16.1Z"/><path class="cls-1" d="M143.44,70.32s0-.02-.01-.03c-.01,0-.02,0-.04,0,.02,.01,.03,.02,.05,.03Z"/><path class="cls-1" d="M109.58,133.71c-4.38,1.42-9.16,2.3-13.67,2.18,6.16,4.39,13.81,7.18,21.94,7.52,.46,.02,1.14,.03,1.6,.03-3.78-2.59-7.22-6.11-9.86-9.73Z"/><path class="cls-1" d="M81.04,115.49c2.66,8.18,8.01,15.41,14.86,20.4-1.55-4.27-2.56-9.05-2.56-13.86-4.49-1.45-8.65-3.68-12.3-6.53Z"/><path class="cls-1" d="M87.06,103.08c-2.76-3.79-4.8-7.99-6.09-12.41-1.07,3.36-1.72,6.92-1.87,10.61-.21,4.91,.47,9.65,1.89,14.07,1.24-4.2,3.18-8.26,5.88-12.02,.06-.09,.13-.17,.19-.26Z"/><path class="cls-1" d="M95.79,70.21s-.07,.05-.1,.07c.02,0,.05,0,.07,0,0-.02,.02-.05,.03-.07Z"/><path class="cls-1" d="M93.39,84.14c0-4.73,.77-9.49,2.37-13.86-.02,0-.05,0-.07,0-6.82,4.98-12.04,12.05-14.69,20.32,0,0,6.36-4.59,12.39-6.47"/><path class="cls-1" d="M109.46,72.37c.24,.07-.24-.08,0,0,2.75-3.82,6.08-7.25,9.89-9.86-8.76,.03-16.91,2.87-23.56,7.7,0,.02-.02,.05-.03,.07,4.27-.14,9.38,.78,13.7,2.09Z"/><path class="cls-1" d="M128.95,71.46c.17,.23,.34,.45,.51,.68,.05,.02,.11,.03,.16,.05,4.38-1.41,9.03-2.09,13.77-1.91-6.24-4.57-13.86-7.4-22.17-7.74-.61-.03-1.22-.03-1.83-.03,3.56,2.37,6.8,5.36,9.55,8.95Z"/><path class="cls-1" d="M131.65,134.35c-.67-.18-1.34-.38-1.99-.59-2.74,3.82-6.41,7.08-10.21,9.69,8.79-.04,17.26-2.9,23.92-7.76-3.86,.13-7.79-.3-11.71-1.34Z"/><path class="cls-1" d="M145.83,122.13c0,4.59-.73,9.15-2.24,13.38,6.58-4.87,11.7-11.82,14.37-19.79-3.07,2.37-6.58,4.44-10.4,5.88-.55,.21-1.18,.34-1.73,.52Z"/><path class="cls-1" d="M129.66,133.76s.04-.05,.05-.07c-.05,.01-.09,.03-.14,.04,.03,0,.06,.02,.09,.03Z"/><path class="cls-1" d="M152.11,102.74c0,.21,0,.43,0,.64,2.67,3.74,4.6,8.02,5.85,12.35,1.13-3.45,1.85-7.26,2.01-11.06,.21-4.96-.51-9.83-1.96-14.29-1.11,3.89-2.81,7.78-5.18,11.33-.23,.35-.47,.69-.71,1.03Z"/><path class="cls-1" d="M145.79,83.77s.06,.08,.08,.11c4.42,1.44,8.54,3.71,12.13,6.5-2.66-8.05-7.83-15.11-14.56-20.05,1.37,3.83,2.18,7.93,2.33,12.21,.01,.41,.02,.82,.02,1.23Z"/><path class="cls-1" d="M93.35,122.03c3.78,5.07,10.12,9.53,16.23,11.68-2.04-2.92-4.19-6.42-5.4-9.77-3.54-.13-7.58-.91-10.83-1.91Z"/><path class="cls-1" d="M87.06,103.08c.16,6.51,2.77,13.91,6.28,18.94,.05-3.56,.58-7.65,1.5-10.93-2.78-2.16-5.73-5.32-7.79-8.02Z"/><path class="cls-1" d="M94.84,95.05c-.99-3.47-1.4-7.44-1.44-10.91-3.36,4.85-6.06,12.49-6.33,18.83-.01,.26,0-.14,0,.12,2.14-2.81,5.1-5.96,7.77-8.04Z"/><path class="cls-1" d="M94.85,111.1s.07,.05,.1,.08c-.02-.07-.04-.13-.06-.2-.01,.04-.02,.08-.03,.12Z"/><path class="cls-1" d="M109.46,72.37c-6.21,2.16-12.23,6.54-16.07,11.76,3.46-1.09,7.39-1.95,10.86-2.08,0,0,0,0,0,0,1.24-3.48,3.15-6.78,5.2-9.68Z"/><path class="cls-1" d="M94.84,95.05s0,.03,.01,.05c0-.03,.02-.05,.03-.08-.01,.01-.03,.02-.04,.03Z"/><path class="cls-1" d="M129.53,72.23s.07-.02,.1-.03c-.05-.02-.11-.03-.16-.05,.02,.03,.04,.06,.06,.09Z"/><path class="cls-1" d="M119.54,77.07s.03,0,.04,0c3.07-2.06,6.42-3.69,9.95-4.84-.02-.03-.04-.06-.06-.09-2.62-.82-5.4-1.31-8.27-1.43-4.01-.17-8.13,.47-11.73,1.66,3.52,1.17,7.02,2.72,9.97,4.7,.04,0,.07,0,.11,0Z"/><path class="cls-1" d="M109.58,133.71c2.61,.81,6.06,1.37,8.91,1.49,3.86,.16,7.59-.36,11.08-1.47-3.54-1.15-6.83-2.76-9.8-4.74-3,2.05-6.89,3.58-10.19,4.72Z"/><path class="cls-1" d="M104.18,123.94s.08,0,.12,0c-.05-.04-.11-.08-.16-.12,.01,.04,.03,.08,.04,.12Z"/><path class="cls-1" d="M129.71,133.69c6.43-2.07,12.14-6.23,16.12-11.55-3.63,1.17-7.57,1.83-11.23,1.95-1.26,3.45-2.84,6.74-4.89,9.61Z"/><path class="cls-1" d="M119.77,128.99c.05-.04,.1-.07,.16-.11-.1,0-.2,0-.31,0,.05,.03,.1,.07,.15,.1Z"/><path class="cls-1" d="M152.11,103.38c0-.21,0-.43,0-.64-.08,.11-.16,.22-.23,.32,.08,.11,.16,.21,.23,.32Z"/><path class="cls-1" d="M144.3,110.95c1.07,3.67,1.52,7.53,1.53,11.19,3.65-4.98,5.98-11.2,6.26-17.83,.01-.31,.02-.61,.02-.92-.08-.11-.15-.21-.23-.32-2.2,3.03-4.76,5.66-7.58,7.88Z"/><path class="cls-1" d="M145.87,83.88s-.06-.08-.08-.11c0,.03,0,.06,0,.09,.03,0,.06,.02,.08,.03Z"/><path class="cls-1" d="M144.21,95.04s.03,.08,.04,.13c2.96,2.32,5.51,4.98,7.63,7.89,.08-.11,.16-.22,.23-.32-.04-7.02-2.34-13.55-6.24-18.86-.03,0-.06-.02-.08-.03,0,3.88-.55,7.63-1.58,11.19Z"/><path class="cls-1" d="M144.16,111.06s.09-.07,.14-.11c-.02-.05-.03-.11-.05-.16-.03,.09-.06,.18-.09,.27Z"/><path class="cls-1" d="M134.75,81.94c3.84,.12,7.54,.79,11.03,1.91,0-.03,0-.06,0-.09-3.98-5.38-9.6-9.49-16.16-11.57-.03,.01-.07,.02-.1,.03,2.23,3.05,3.97,6.32,5.23,9.71Z"/><path class="cls-1" d="M134.79,82.03s-.02-.06-.04-.1c-.03,0-.07,0-.1,0,.05,.03,.09,.07,.14,.1Z"/><path class="cls-1" d="M97.21,112.8c-.78-.52-1.53-1.06-2.26-1.63,1.7,5.11,4.95,9.51,9.19,12.64-.94-2.64-1.61-5.39-1.99-8.2-1.69-.81-3.34-1.75-4.94-2.82Z"/><path class="cls-1" d="M95.89,98.25c-.39-1.04-.74-2.1-1.04-3.15-.79,2.49-1.22,5.13-1.22,7.88s.44,5.48,1.26,8c.79-2.76,1.87-5.41,3.2-7.89-.83-1.54-1.56-3.16-2.2-4.84Z"/><polygon class="cls-1" points="104.26 82.05 104.25 82.06 104.26 82.06 104.26 82.05"/><path class="cls-1" d="M102.23,90.41c.23-1.72,.56-3.44,1.02-5.16,.29-1.09,.63-2.16,1-3.2,0,0,0,0,0,0-4.36,3.19-7.68,7.71-9.38,12.96,2.28-1.77,4.72-3.27,7.28-4.49,.03-.04,.05-.07,.08-.11Z"/><path class="cls-1" d="M98.15,102.97s-.04,.08-.06,.12c.02,.04,.04,.08,.07,.12,0-.08,0-.15,0-.23,0,0,0,0,0-.01Z"/><path class="cls-1" d="M119.58,77.07s-.03,0-.04,0c-.04,0-.07,0-.11,0,.02,.02,.05,.03,.07,.05,.03-.02,.05-.03,.08-.05Z"/><path class="cls-1" d="M112.87,82.66s.06-.02,.09-.03c1.99-2.07,4.19-3.92,6.55-5.51-.02-.02-.05-.03-.07-.05-5.67,.02-10.91,1.87-15.17,4.98,0,0,0,0,0,0,2.91-.11,5.79,.1,8.61,.6Z"/><path class="cls-1" d="M113.05,123.36s-.1-.03-.14-.05c-1.92,.35-3.88,.56-5.88,.63-.91,.03-1.82,.03-2.72,0,4.28,3.11,9.54,4.95,15.23,4.95,.03,0,.05,0,.08,0-2.4-1.61-4.6-3.47-6.57-5.53Z"/><path class="cls-1" d="M102.15,115.62c.07,.03,.14,.07,.21,.1-.08-.11-.16-.21-.23-.32,0,.07,.02,.15,.03,.22Z"/><path class="cls-1" d="M126.13,123.41c-1.41,1.47-2.89,3-4.56,4.28-.54,.42-1.09,.82-1.65,1.2,5.39-.08,10.56-1.91,14.67-4.8-2.78,.07-5.77-.18-8.47-.67Z"/><path class="cls-1" d="M135.45,122c-.2,.64-.63,1.46-.85,2.08,4.33-3.17,7.86-7.82,9.56-13.03-2.29,1.79-4.75,3.31-7.33,4.54-.28,2.13-.74,4.27-1.38,6.4Z"/><path class="cls-1" d="M144.25,95.17s-.03-.08-.04-.13c0,.03-.01,.05-.02,.08,.02,.02,.04,.03,.06,.05Z"/><path class="cls-1" d="M140.99,102.91c1.09,1.99,2.02,4.11,2.77,6.33,.18,.52,.34,1.03,.49,1.55,.78-2.46,1.2-5.09,1.2-7.81s-.42-5.34-1.2-7.81c-.02-.02-.04-.03-.06-.05-.8,2.72-1.87,5.33-3.2,7.78Z"/><path class="cls-1" d="M136.83,115.6s0-.04,0-.06c-.02,.03-.04,.05-.06,.08,.02,0,.03-.02,.05-.02Z"/><path class="cls-1" d="M134.79,82.03c1.01,2.75,1.71,5.59,2.1,8.44,.03,.05,.07,.1,.1,.14,2.01,.98,3.96,2.13,5.83,3.48,.46,.33,.92,.67,1.36,1.02,0-.03,.01-.05,.02-.08-1.7-5.28-5.04-9.81-9.42-13.01Z"/><path class="cls-1" d="M140.92,102.98s0,.03,0,.05c.02-.04,.04-.08,.07-.12-.02-.04-.04-.08-.07-.13,0,.07,0,.13,0,.2Z"/><path class="cls-1" d="M126,82.59s.02,0,.04,.01c2.4-.45,4.88-.69,7.41-.69,.4,0,.81,0,1.21,.02-4.24-3.05-9.45-4.86-15.07-4.87-.03,.02-.05,.03-.08,.05,2.38,1.6,4.55,3.44,6.49,5.47Z"/><path class="cls-1" d="M101.84,108.84c-1.37-1.75-2.6-3.63-3.68-5.63,.05,4.54,1.51,8.75,3.97,12.19-.27-2.16-.37-4.35-.29-6.56Z"/><path class="cls-1" d="M102.23,90.41s-.05,.07-.08,.11c.02-.01,.05-.02,.07-.03,0-.02,0-.05,0-.07Z"/><path class="cls-1" d="M102.22,90.49s-.05,.02-.07,.03c-2.52,3.5-4,7.8-4,12.44,1.09-2.02,2.36-3.94,3.77-5.74-.09-2.23,0-4.48,.3-6.74Z"/><path class="cls-1" d="M112.95,82.63s-.06,.02-.09,.03c.02,0,.03,0,.05,0,.01-.01,.02-.02,.04-.04Z"/><path class="cls-1" d="M108.55,88.11c1.3-1.95,2.77-3.77,4.37-5.45-.02,0-.03,0-.05,0-4.31,1.41-8.02,4.16-10.63,7.76,0,.02,0,.05,0,.07,2.04-.97,4.16-1.76,6.32-2.38Z"/><path class="cls-1" d="M112.91,123.31s.1,.03,.14,.05c-.02-.02-.04-.04-.06-.06-.03,0-.06,0-.09,.01Z"/><path class="cls-1" d="M108.81,118.12c-2.19-.6-4.35-1.4-6.45-2.4,2.61,3.52,6.37,6.19,10.63,7.58,.03,0-.03,0,0,0-1.54-1.61-2.93-3.35-4.18-5.18Z"/><path class="cls-1" d="M112.99,123.3s-.02-.02,0,0c2.05,.65,4.28,1.06,6.55,1.06s4.64-.37,6.6-.96c-2.21-.43-4.79-1-6.88-1.8-2.02,.72-4.11,1.29-6.26,1.69Z"/><path class="cls-1" d="M126.13,123.41c4.15-1.43,8.1-4.31,10.65-7.78-1.99,.95-4.05,1.73-6.15,2.34-1.21,1.84-2.96,3.8-4.5,5.44Z"/><path class="cls-1" d="M136.84,115.54c2.56-3.52,4.07-7.84,4.08-12.52-1.1,2.01-2.36,3.92-3.77,5.7,.09,2.25,0,4.53-.31,6.81Z"/><path class="cls-1" d="M136.99,90.62s-.07-.1-.1-.14c0,.03,0,.07,.01,.1,.03,.01,.06,.03,.09,.04Z"/><path class="cls-1" d="M137.22,97.22c1.37,1.73,2.61,3.58,3.69,5.56-.04-4.53-1.49-8.72-3.93-12.16-.03-.01-.06-.03-.09-.04,.29,2.21,.4,4.43,.32,6.64Z"/><path class="cls-1" d="M126.03,82.6s-.02,0-.04-.01c0,0,.01,.01,.02,.02,0,0,.01,0,.02,0Z"/><path class="cls-1" d="M126.03,82.6s-.01,0-.02,0c1.64,1.71,3.11,3.55,4.42,5.51,2.2,.62,4.36,1.44,6.47,2.46,0-.03,0-.07-.01-.1-2.65-3.67-6.44-6.47-10.85-7.88Z"/><path class="cls-1" d="M119.44,84.43c2.11-.79,4.31-1.4,6.57-1.82,0,0-.01-.01-.02-.02-2.04-.65-4.21-.99-6.46-.99s-4.51,.36-6.58,1.03c-.01,.01-.02,.02-.04,.04,2.23,.4,4.41,1,6.53,1.76Z"/><circle class="cls-1" cx="119.54" cy="102.98" r=".07"/></g><g><path class="cls-2" d="M380.71,99.32c.05-.09,.13-.45,0,0h0Z"/><path class="cls-2" d="M380.71,99.32c.13-.45,.05-.09,0,0,.22,1.06,.42,2.06,.64,3.07,1.51-.03,3.03-.02,4.54-.01h1.49c-.71-.63-1.13-1.63-1.27-2.54-.15-.94-.24-1.9-.25-2.86-.03-4.32-.01-8.63-.01-12.95,0-.38,0-.76-.03-1.14-.14-2.11-1.06-3.81-2.72-5.12-.84-.66-1.78-1.14-2.78-1.52-1.83-.69-3.75-1-5.69-1.14-2.3-.17-4.59-.07-6.86,.3-2.58,.42-4.9,1.52-7.18,2.72-.04,.02-.05,.08-.1,.19,.75,1.49,1.59,3.08,2.37,4.63,.17-.12,.19-.23,.25-.3,1.21-1.42,2.81-2.2,4.57-2.67,2.75-.73,5.54-.75,8.34-.36,.98,.14,1.93,.39,2.8,.87,1.47,.82,2.05,2.1,1.93,3.73-.08,1.09-.5,1.61-1.56,1.86-.71,.17-1.44,.27-2.17,.28-2.3,.04-4.59,0-6.89,.05-1.61,.04-3.23,.1-4.83,.29-3.05,.36-5.54,2.68-6.2,5.65-.22,1-.19,2-.09,3.01,.29,2.76,1.64,4.78,4.19,5.94,.43,.2,.89,.36,1.34,.51,1.59,.53,3.25,.71,4.91,.81,2.27,.14,4.54,.12,6.78-.39,1.75-.4,3.51-1.34,4.49-2.95Zm-13.03-1.42c-.69-.19-1.39-.49-1.98-.89-1.51-1.04-1.81-3.67-.53-5,.94-.98,2.53-1.04,3.8-1.14,1.59-.13,3.19-.12,4.79-.13,2.35-.01,4.96,.09,7.07-1.06-.06,1.45,.15,2.79-.17,4.1-.38,1.51-1.33,2.58-2.65,3.34-1.2,.69-2.51,1.05-3.87,1.18-2.17,.21-4.34,.2-6.45-.38Z"/><path class="cls-2" d="M226.27,101.98c-.64-.7-.98-1.53-1.11-2.45-.11-.77-.18-1.56-.19-2.33-.02-3.1,0-6.21,0-9.31,0-1.62,.03-3.23-.03-4.85-.08-2.23-1.06-4.01-2.84-5.36-.96-.72-2.02-1.23-3.16-1.6-3.6-1.15-7.29-1.22-11.01-.82-2.97,.32-5.63,1.51-8.23,2.87l-.14,.08c.75,1.49,1.68,3.25,2.42,4.73l.24-.29c1.26-1.45,2.9-2.24,4.72-2.71,2.7-.69,5.44-.72,8.19-.31,.84,.13,1.68,.36,2.46,.7,1.67,.72,2.41,2.07,2.27,3.89-.08,1.03-.49,1.6-1.48,1.85-.7,.17-1.44,.28-2.17,.3-1.74,.05-3.48,.04-5.22,.04-2.17,0-4.34,0-6.5,.28-3.08,.4-5.61,2.69-6.27,5.67-.26,1.18-.21,2.36-.02,3.54,.43,2.59,1.84,4.44,4.26,5.48,.53,.23,1.08,.43,1.64,.58,2.78,.75,5.63,.87,8.49,.67,1.1-.08,2.2-.27,3.28-.52,1.57-.37,2.88-1.19,3.75-2.61,.05-.08,.13-.14,.25-.26,.17,.9,.28,1.69,.47,2.47,.16,.64,.23,.66,.9,.66,1.51,0,3.03,0,4.54,0,.22,0,.43-.03,.71-.06-.09-.17-.13-.27-.19-.34Zm-6.36-9c-.13,1.6-.94,2.85-2.24,3.78-1.01,.71-2.13,1.14-3.33,1.35-2.54,.46-5.07,.41-7.57-.21-.65-.16-1.3-.45-1.85-.82-1.46-.96-1.86-3.36-.85-4.79,.38-.54,.91-.9,1.53-1.04,.9-.21,1.83-.41,2.75-.45,1.86-.09,3.73-.04,5.59-.09,1.26-.03,2.52-.08,3.77-.24,.73-.09,1.43-.41,2.23-.65,0,1.06,.07,2.13-.02,3.18Z"/><path class="cls-2" d="M232.92,94.22c.14,.11-.05-.09,0,0h0Z"/><path class="cls-2" d="M254.75,88.02c-1.08-.73-2.25-1.28-3.54-1.46-1.5-.2-3-.37-4.51-.45-2.22-.11-4.44-.1-6.66-.17-1.01-.03-2.01-.19-2.94-.64-.97-.48-1.35-1.26-1.18-2.3,.14-.88,.64-1.52,1.34-2.03,.79-.57,1.69-.91,2.63-1.11,2.91-.63,5.82-.58,8.71,.07,2.08,.47,3.97,1.33,5.4,2.99,.06,.07,.17,.09,.33,.17,.77-1.55,1.53-3.08,2.33-4.66-.8-.38-1.55-.74-2.29-1.1-4.71-2.26-9.65-2.77-14.76-1.83-1.97,.36-3.85,1.02-5.52,2.17-2.51,1.73-3.63,4.12-3.35,7.15,.2,2.21,1.25,3.87,3.29,4.81,.77,.36,1.6,.64,2.43,.81,2.28,.45,4.6,.57,6.92,.62,1.34,.03,2.67,.07,4.01,.16,1.11,.08,2.2,.27,3.22,.76,1.03,.5,1.58,1.32,1.57,2.47,0,.92-.45,1.64-1.15,2.2-.8,.65-1.74,1.02-2.73,1.25-2.56,.62-5.14,.67-7.74,.37-1.46-.17-2.88-.51-4.22-1.13-1.28-.6-2.72-1.64-3.42-2.93-.06,.1-.11,.16-.14,.23-.78,1.61-1.56,3.22-2.37,4.91,1.13,.85,2.34,1.41,3.6,1.85,4.67,1.64,9.46,1.94,14.33,1.16,2-.32,3.92-.95,5.65-2.06,2.64-1.68,3.94-4.04,3.65-7.21-.19-2.13-1.09-3.87-2.88-5.09Z"/><path class="cls-2" d="M291.74,102.24c-1.35-1.4-1.44-3.16-1.49-4.94,0-.18,0-.35,0-.53,0-5.23,0-10.45,0-15.68,0-.71,.03-1.41,.09-2.12,.1-1.15,.41-2.23,1.21-3.12,.06-.07,.09-.16,.14-.25-3.74,0-3.74,.03-8.11,.03,0,.05,0,.12,.03,.14,1.09,1.08,1.34,2.45,1.37,3.89,.03,1.94,.03,3.89,.03,5.83,0,.14-.05,.29-.08,.45h-16.5c-.04-.11-.08-.18-.08-.25,.01-2.25-.01-4.49,.06-6.74,.04-1.15,.39-2.23,1.19-3.13,.07-.08,.09-.2,.14-.32-3.58,0-4.04,.09-8.12,.09,.05,.09,.08,.19,.15,.25,.72,.68,1.02,1.56,1.16,2.49,.1,.72,.15,1.46,.15,2.19,.01,5.55,.01,11.11,0,16.66,0,.65-.04,1.31-.11,1.96-.13,1.04-.41,2.03-1.21,2.79-.07,.07-.09,.2-.13,.31l8.14-.02c-.08-.13-.14-.27-.23-.37-.54-.63-.87-1.37-.99-2.18-.11-.75-.19-1.5-.2-2.26-.03-2.04-.01-4.09,0-6.13,0-.24,.03-.49,.05-.76h16.59c.02,.32,.04,.59,.04,.86,0,1.34,0,2.68,0,4.01,0,1.09,0,2.17-.07,3.25-.06,1.23-.32,2.4-1.26,3.32-.07,.07-.09,.21-.13,.33l8.18-.08Z"/><path class="cls-2" d="M318.57,76.53c-4.8-2.02-9.7-2.02-14.52-.08-3.7,1.49-6.26,4.18-7.54,8-.54,1.62-.75,3.29-.67,5,.22,5.31,2.66,9.22,7.44,11.59,2.49,1.23,5.16,1.7,8.5,1.71,1.12,.02,2.79-.19,4.43-.62,6.18-1.61,9.85-6.14,10.4-11.69,.57-5.75-2.08-11.4-8.04-13.91Zm1.9,16.83c-1.43,2.79-3.82,4.28-6.83,4.85-.79,.15-1.6,.18-2.4,.26-1.77-.04-3.47-.35-5.07-1.13-3.03-1.49-4.7-3.93-5.1-7.28-.15-1.27-.07-2.52,.25-3.75,.76-2.85,2.51-4.88,5.22-5.99,3.1-1.27,6.27-1.3,9.36,0,3.53,1.48,5.32,4.26,5.54,8.06,.1,1.74-.18,3.43-.98,4.99Z"/><path class="cls-2" d="M358.67,102.45c.16-.03,.31-.09,.59-.18-4.99-4.28-9.28-9.08-13.73-13.78,.48-.62,.9-1.15,1.32-1.69,.43-.56,.87-1.11,1.31-1.67,.42-.54,.84-1.07,1.26-1.61,.42-.54,.83-1.08,1.26-1.61,.44-.55,.89-1.1,1.34-1.64,.44-.52,.88-1.04,1.32-1.56,.46-.54,.92-1.07,1.37-1.62,.42-.51,.91-.97,1.33-1.64h-8.15c.55,1.11,.18,2.01-.36,2.87-.39,.62-.81,1.22-1.26,1.79-2.29,2.88-4.6,5.76-6.89,8.63-.17,.21-.32,.44-.49,.66,.14,.17,.25,.31,.37,.44,2.21,2.45,4.42,4.91,6.65,7.35,.75,.82,1.53,1.61,2.35,2.36,2.98,2.74,6.47,3.67,10.43,2.89Z"/><path class="cls-2" d="M338.4,102.27c-.08-.13-.13-.27-.22-.38-.59-.7-.9-1.52-1.03-2.4-.09-.67-.15-1.36-.16-2.03-.01-5.68,0-11.36,0-17.04,0-.23,0-.45,0-.68,.08-1.41,.3-2.76,1.29-3.87,.06-.06,.06-.17,.11-.31h-8.17c.12,.2,.18,.34,.27,.44,.62,.61,.92,1.39,1.05,2.22,.11,.72,.18,1.46,.18,2.18,.01,5.71,.01,11.41,0,17.12,0,.68-.06,1.36-.16,2.03-.13,.89-.42,1.71-1.09,2.37-.09,.09-.14,.23-.21,.37h8.13Z"/><g><path class="cls-2" d="M206.68,130.95c-.94,0-1.79-.14-2.57-.42-.77-.28-1.44-.7-1.99-1.26-.56-.56-.99-1.24-1.29-2.07-.3-.82-.45-1.77-.45-2.84v-8.81h1.71v8.7c0,1.65,.41,2.91,1.22,3.79,.82,.88,1.95,1.32,3.41,1.32s2.51-.42,3.33-1.26c.82-.84,1.23-2.09,1.23-3.75v-8.81h1.71v8.68c0,1.11-.15,2.09-.45,2.92-.3,.84-.73,1.54-1.29,2.1-.56,.56-1.22,.99-1.99,1.27-.77,.28-1.63,.42-2.59,.42Z"/><path class="cls-2" d="M223.41,115.56h1.6l9.55,12.15v-12.15h1.67v15.15h-1.36l-9.79-12.43v12.43h-1.67v-15.15Z"/><path class="cls-2" d="M247.03,115.56h1.71v15.15h-1.71v-15.15Z"/><path class="cls-2" d="M257.82,115.56h1.91l5.39,13.05,5.41-13.05h1.84l-6.52,15.26h-1.52l-6.52-15.26Z"/><path class="cls-2" d="M280.85,115.56h10.95v1.54h-9.24v5.22h8.27v1.54h-8.27v5.33h9.35v1.54h-11.06v-15.15Z"/><path class="cls-2" d="M302.15,115.56h6.52c.94,0,1.77,.13,2.5,.4,.73,.27,1.33,.64,1.81,1.11,.38,.38,.66,.82,.87,1.32,.2,.51,.3,1.06,.3,1.67v.04c0,.64-.1,1.2-.3,1.7-.2,.5-.49,.93-.86,1.3-.37,.37-.8,.67-1.31,.91-.51,.24-1.05,.41-1.65,.51l4.65,6.19h-2.1l-4.39-5.89h-4.33v5.89h-1.71v-15.15Zm6.38,7.73c.56,0,1.08-.07,1.56-.22,.48-.14,.89-.35,1.24-.62,.35-.27,.62-.59,.81-.97,.2-.38,.29-.82,.29-1.31v-.04c0-.94-.34-1.67-1.02-2.2-.68-.53-1.63-.79-2.86-.79h-4.69v6.15h4.67Z"/><path class="cls-2" d="M329.39,130.93c-1.21,0-2.32-.2-3.32-.6-1-.4-1.96-1.01-2.87-1.83l1.06-1.26c.79,.72,1.59,1.26,2.4,1.61,.81,.35,1.74,.53,2.79,.53s1.84-.24,2.46-.73c.61-.48,.92-1.1,.92-1.85v-.04c0-.35-.06-.66-.17-.94-.12-.28-.32-.54-.61-.77-.29-.23-.69-.44-1.2-.63-.51-.19-1.17-.37-1.96-.54-.87-.19-1.62-.4-2.27-.65-.64-.25-1.18-.54-1.6-.89-.42-.35-.73-.75-.93-1.21-.2-.46-.3-1-.3-1.62v-.04c0-.59,.12-1.14,.37-1.65,.25-.51,.59-.94,1.04-1.31,.45-.37,.97-.66,1.58-.87,.61-.21,1.27-.31,1.99-.31,1.11,0,2.08,.16,2.91,.47,.83,.31,1.63,.78,2.41,1.4l-1,1.32c-.71-.58-1.42-1-2.13-1.26s-1.46-.39-2.24-.39c-1,0-1.78,.23-2.36,.7-.58,.47-.87,1.05-.87,1.74v.04c0,.36,.06,.68,.17,.96,.12,.28,.32,.54,.63,.78,.3,.24,.72,.45,1.26,.65,.53,.19,1.22,.38,2.06,.55,1.69,.38,2.93,.9,3.73,1.56,.8,.66,1.2,1.57,1.2,2.73v.04c0,.65-.13,1.24-.38,1.76-.26,.53-.61,.98-1.06,1.35-.45,.38-.99,.66-1.63,.87-.64,.2-1.33,.3-2.08,.3Z"/><path class="cls-2" d="M344.54,115.56h1.71v15.15h-1.71v-15.15Z"/><path class="cls-2" d="M359.76,117.14h-5.09v-1.58h11.89v1.58h-5.09v13.57h-1.71v-13.57Z"/><path class="cls-2" d="M378.73,124.72l-6.3-9.16h2.08l5.1,7.58,5.14-7.58h1.99l-6.3,9.14v6.02h-1.71v-6Z"/></g></g></svg>